<mxfile host="app.diagrams.net" modified="2021-03-14T16:12:09.340Z" agent="5.0 (Windows NT 10.0; Win64; x64) AppleWebKit/537.36 (KHTML, like Gecko) Chrome/89.0.4389.82 Safari/537.36" etag="wVqcNkTZzgWux713OXyu" version="14.4.8" type="github">
  <diagram id="TGfE5Hp9VfeUdzbMZiZB" name="第 1 页">
    <mxGraphModel dx="1422" dy="800" grid="1" gridSize="10" guides="1" tooltips="1" connect="1" arrows="1" fold="1" page="1" pageScale="1" pageWidth="827" pageHeight="1169" math="0" shadow="0">
      <root>
        <mxCell id="0" />
        <mxCell id="1" parent="0" />
        <mxCell id="wzGuwuQVTWBn12HWUTbO-2" value="" style="rounded=0;whiteSpace=wrap;html=1;" vertex="1" parent="1">
          <mxGeometry x="184" y="317" width="460" height="163" as="geometry" />
        </mxCell>
        <mxCell id="wzGuwuQVTWBn12HWUTbO-4" value="" style="endArrow=none;html=1;" edge="1" parent="1">
          <mxGeometry width="50" height="50" relative="1" as="geometry">
            <mxPoint x="264" y="330" as="sourcePoint" />
            <mxPoint x="604" y="330" as="targetPoint" />
          </mxGeometry>
        </mxCell>
        <mxCell id="wzGuwuQVTWBn12HWUTbO-7" value="" style="endArrow=none;html=1;" edge="1" parent="1">
          <mxGeometry width="50" height="50" relative="1" as="geometry">
            <mxPoint x="413" y="330" as="sourcePoint" />
            <mxPoint x="413" y="301" as="targetPoint" />
          </mxGeometry>
        </mxCell>
        <mxCell id="wzGuwuQVTWBn12HWUTbO-10" value="&lt;font style=&quot;font-size: 17px&quot;&gt;SPP&lt;/font&gt;" style="text;html=1;resizable=0;autosize=1;align=center;verticalAlign=middle;points=[];fillColor=none;strokeColor=none;rounded=0;" vertex="1" parent="1">
          <mxGeometry x="190" y="330" width="50" height="20" as="geometry" />
        </mxCell>
        <mxCell id="wzGuwuQVTWBn12HWUTbO-12" value="&lt;span style=&quot;font-size: 9px&quot;&gt;Max&lt;br style=&quot;font-size: 9px&quot;&gt;Pooling&lt;/span&gt;" style="text;html=1;resizable=0;autosize=1;align=center;verticalAlign=middle;points=[];fillColor=none;strokeColor=none;rounded=0;fontSize=14;" vertex="1" parent="1">
          <mxGeometry x="540" y="358" width="53" height="38" as="geometry" />
        </mxCell>
        <mxCell id="wzGuwuQVTWBn12HWUTbO-14" value="&lt;font style=&quot;font-size: 13px&quot;&gt;&lt;sup&gt;kernel_size = 3&lt;br&gt;padding = 3/2&lt;br&gt;&lt;/sup&gt;&lt;/font&gt;" style="rounded=0;whiteSpace=wrap;html=1;" vertex="1" parent="1">
          <mxGeometry x="220" y="359.5" width="89" height="40.5" as="geometry" />
        </mxCell>
        <mxCell id="wzGuwuQVTWBn12HWUTbO-19" value="" style="endArrow=classic;html=1;" edge="1" parent="1">
          <mxGeometry width="50" height="50" relative="1" as="geometry">
            <mxPoint x="603.9999999999999" y="330" as="sourcePoint" />
            <mxPoint x="603.9999999999999" y="363" as="targetPoint" />
          </mxGeometry>
        </mxCell>
        <mxCell id="wzGuwuQVTWBn12HWUTbO-20" value="" style="endArrow=none;html=1;" edge="1" parent="1">
          <mxGeometry width="50" height="50" relative="1" as="geometry">
            <mxPoint x="604" y="424" as="sourcePoint" />
            <mxPoint x="603.9999999999999" y="356" as="targetPoint" />
          </mxGeometry>
        </mxCell>
        <mxCell id="wzGuwuQVTWBn12HWUTbO-21" value="&lt;span style=&quot;color: rgb(0 , 0 , 0) ; font-style: normal ; letter-spacing: normal ; text-align: center ; text-indent: 0px ; text-transform: none ; word-spacing: 0px ; background-color: rgb(248 , 249 , 250) ; display: inline ; float: none&quot;&gt;&lt;font face=&quot;Times New Roman&quot; size=&quot;1&quot;&gt;&lt;b style=&quot;font-size: 13px&quot;&gt;DarknetConv2D_BN_Leaky_3×3(512&lt;/b&gt;&lt;/font&gt;&lt;b style=&quot;font-family: &amp;#34;times new roman&amp;#34; ; font-size: 13px&quot;&gt;,19,19&lt;/b&gt;&lt;font face=&quot;Times New Roman&quot; size=&quot;1&quot;&gt;&lt;b style=&quot;font-size: 13px&quot;&gt;)&lt;/b&gt;&lt;/font&gt;&lt;/span&gt;" style="rounded=0;whiteSpace=wrap;html=1;strokeWidth=1;fontSize=7;" vertex="1" parent="1">
          <mxGeometry x="280" y="220" width="260" height="31" as="geometry" />
        </mxCell>
        <mxCell id="wzGuwuQVTWBn12HWUTbO-23" value="&lt;span style=&quot;color: rgb(0 , 0 , 0) ; font-style: normal ; letter-spacing: normal ; text-align: center ; text-indent: 0px ; text-transform: none ; word-spacing: 0px ; background-color: rgb(248 , 249 , 250) ; display: inline ; float: none&quot;&gt;&lt;font face=&quot;Times New Roman&quot; size=&quot;1&quot;&gt;&lt;b style=&quot;font-size: 13px&quot;&gt;DarknetConv2D_BN_Leaky_1×1(&lt;/b&gt;&lt;/font&gt;&lt;b style=&quot;font-family: &amp;#34;times new roman&amp;#34; ; font-size: 13px&quot;&gt;256,19,19&lt;/b&gt;&lt;font face=&quot;Times New Roman&quot; size=&quot;1&quot;&gt;&lt;b style=&quot;font-size: 13px&quot;&gt;)&lt;/b&gt;&lt;/font&gt;&lt;/span&gt;" style="rounded=0;whiteSpace=wrap;html=1;strokeWidth=1;fontSize=7;" vertex="1" parent="1">
          <mxGeometry x="280" y="270" width="260" height="31" as="geometry" />
        </mxCell>
        <mxCell id="wzGuwuQVTWBn12HWUTbO-24" value="&lt;font face=&quot;Times New Roman&quot;&gt;&lt;span&gt;Input(512,19,19)&lt;/span&gt;&lt;/font&gt;" style="rounded=0;whiteSpace=wrap;html=1;fontStyle=1" vertex="1" parent="1">
          <mxGeometry x="354" y="120" width="120" height="30" as="geometry" />
        </mxCell>
        <mxCell id="wzGuwuQVTWBn12HWUTbO-25" value="&lt;span style=&quot;color: rgb(0 , 0 , 0) ; font-style: normal ; letter-spacing: normal ; text-align: center ; text-indent: 0px ; text-transform: none ; word-spacing: 0px ; background-color: rgb(248 , 249 , 250) ; display: inline ; float: none&quot;&gt;&lt;font face=&quot;Times New Roman&quot; size=&quot;1&quot;&gt;&lt;b style=&quot;font-size: 13px&quot;&gt;DarknetConv2D_BN_Leaky_1×1(&lt;/b&gt;&lt;/font&gt;&lt;b style=&quot;font-family: &amp;#34;times new roman&amp;#34; ; font-size: 13px&quot;&gt;256,19,19&lt;/b&gt;&lt;font face=&quot;Times New Roman&quot; size=&quot;1&quot;&gt;&lt;b style=&quot;font-size: 13px&quot;&gt;)&lt;/b&gt;&lt;/font&gt;&lt;/span&gt;" style="rounded=0;whiteSpace=wrap;html=1;strokeWidth=1;fontSize=7;" vertex="1" parent="1">
          <mxGeometry x="280" y="170" width="260" height="31" as="geometry" />
        </mxCell>
        <mxCell id="wzGuwuQVTWBn12HWUTbO-29" value="&lt;font style=&quot;font-size: 13px&quot;&gt;&lt;sup&gt;kernel_size = 7&lt;br&gt;padding = 7/2&lt;br&gt;&lt;/sup&gt;&lt;/font&gt;" style="rounded=0;whiteSpace=wrap;html=1;" vertex="1" parent="1">
          <mxGeometry x="333" y="359.5" width="89" height="40.5" as="geometry" />
        </mxCell>
        <mxCell id="wzGuwuQVTWBn12HWUTbO-30" value="&lt;font style=&quot;font-size: 13px&quot;&gt;&lt;sup&gt;kernel_size = 11&lt;br&gt;padding = 11/2&lt;br&gt;&lt;/sup&gt;&lt;/font&gt;" style="rounded=0;whiteSpace=wrap;html=1;" vertex="1" parent="1">
          <mxGeometry x="445" y="359.5" width="89" height="40.5" as="geometry" />
        </mxCell>
        <mxCell id="wzGuwuQVTWBn12HWUTbO-31" value="" style="endArrow=classic;html=1;entryX=0.5;entryY=0;entryDx=0;entryDy=0;" edge="1" parent="1" target="wzGuwuQVTWBn12HWUTbO-30">
          <mxGeometry width="50" height="50" relative="1" as="geometry">
            <mxPoint x="490" y="330" as="sourcePoint" />
            <mxPoint x="489.3" y="350" as="targetPoint" />
          </mxGeometry>
        </mxCell>
        <mxCell id="wzGuwuQVTWBn12HWUTbO-32" value="" style="endArrow=classic;html=1;entryX=0.5;entryY=0;entryDx=0;entryDy=0;" edge="1" parent="1">
          <mxGeometry width="50" height="50" relative="1" as="geometry">
            <mxPoint x="377.75" y="329.99999999999994" as="sourcePoint" />
            <mxPoint x="377.25" y="359.5" as="targetPoint" />
          </mxGeometry>
        </mxCell>
        <mxCell id="wzGuwuQVTWBn12HWUTbO-33" value="" style="endArrow=classic;html=1;entryX=0.5;entryY=0;entryDx=0;entryDy=0;" edge="1" parent="1">
          <mxGeometry width="50" height="50" relative="1" as="geometry">
            <mxPoint x="264.75" y="329.99999999999994" as="sourcePoint" />
            <mxPoint x="264.25" y="359.5" as="targetPoint" />
          </mxGeometry>
        </mxCell>
        <mxCell id="wzGuwuQVTWBn12HWUTbO-35" value="" style="endArrow=none;html=1;" edge="1" parent="1">
          <mxGeometry width="50" height="50" relative="1" as="geometry">
            <mxPoint x="264" y="423" as="sourcePoint" />
            <mxPoint x="604" y="423" as="targetPoint" />
          </mxGeometry>
        </mxCell>
        <mxCell id="wzGuwuQVTWBn12HWUTbO-37" value="" style="endArrow=none;html=1;" edge="1" parent="1">
          <mxGeometry width="50" height="50" relative="1" as="geometry">
            <mxPoint x="377" y="400" as="sourcePoint" />
            <mxPoint x="377" y="423" as="targetPoint" />
          </mxGeometry>
        </mxCell>
        <mxCell id="wzGuwuQVTWBn12HWUTbO-38" value="" style="endArrow=none;html=1;" edge="1" parent="1">
          <mxGeometry width="50" height="50" relative="1" as="geometry">
            <mxPoint x="489" y="400" as="sourcePoint" />
            <mxPoint x="489.36" y="423" as="targetPoint" />
          </mxGeometry>
        </mxCell>
        <mxCell id="wzGuwuQVTWBn12HWUTbO-39" value="" style="endArrow=none;html=1;" edge="1" parent="1">
          <mxGeometry width="50" height="50" relative="1" as="geometry">
            <mxPoint x="264" y="400" as="sourcePoint" />
            <mxPoint x="264.36" y="423" as="targetPoint" />
          </mxGeometry>
        </mxCell>
        <mxCell id="wzGuwuQVTWBn12HWUTbO-40" value="" style="endArrow=classic;html=1;" edge="1" parent="1">
          <mxGeometry width="50" height="50" relative="1" as="geometry">
            <mxPoint x="414" y="423" as="sourcePoint" />
            <mxPoint x="414" y="440" as="targetPoint" />
          </mxGeometry>
        </mxCell>
        <mxCell id="wzGuwuQVTWBn12HWUTbO-41" value="" style="endArrow=classic;html=1;" edge="1" parent="1">
          <mxGeometry width="50" height="50" relative="1" as="geometry">
            <mxPoint x="160" y="230" as="sourcePoint" />
            <mxPoint x="160" y="250" as="targetPoint" />
          </mxGeometry>
        </mxCell>
        <mxCell id="wzGuwuQVTWBn12HWUTbO-42" value="" style="endArrow=classic;html=1;" edge="1" parent="1">
          <mxGeometry width="50" height="50" relative="1" as="geometry">
            <mxPoint x="413.8" y="150" as="sourcePoint" />
            <mxPoint x="413.8" y="170" as="targetPoint" />
          </mxGeometry>
        </mxCell>
        <mxCell id="wzGuwuQVTWBn12HWUTbO-43" value="" style="endArrow=classic;html=1;" edge="1" parent="1">
          <mxGeometry width="50" height="50" relative="1" as="geometry">
            <mxPoint x="413" y="200" as="sourcePoint" />
            <mxPoint x="413" y="220" as="targetPoint" />
          </mxGeometry>
        </mxCell>
        <mxCell id="wzGuwuQVTWBn12HWUTbO-44" value="" style="endArrow=classic;html=1;" edge="1" parent="1">
          <mxGeometry width="50" height="50" relative="1" as="geometry">
            <mxPoint x="413" y="251" as="sourcePoint" />
            <mxPoint x="413" y="271" as="targetPoint" />
          </mxGeometry>
        </mxCell>
        <mxCell id="wzGuwuQVTWBn12HWUTbO-45" value="&lt;span style=&quot;color: rgb(0 , 0 , 0) ; font-style: normal ; letter-spacing: normal ; text-align: center ; text-indent: 0px ; text-transform: none ; word-spacing: 0px ; background-color: rgb(248 , 249 , 250) ; display: inline ; float: none&quot;&gt;&lt;font face=&quot;Times New Roman&quot; size=&quot;1&quot;&gt;&lt;b style=&quot;font-size: 13px&quot;&gt;DarknetConv2D_BN_Leaky_3×3(512&lt;/b&gt;&lt;/font&gt;&lt;b style=&quot;font-family: &amp;#34;times new roman&amp;#34; ; font-size: 13px&quot;&gt;,19,19&lt;/b&gt;&lt;font face=&quot;Times New Roman&quot; size=&quot;1&quot;&gt;&lt;b style=&quot;font-size: 13px&quot;&gt;)&lt;/b&gt;&lt;/font&gt;&lt;/span&gt;" style="rounded=0;whiteSpace=wrap;html=1;strokeWidth=1;fontSize=7;" vertex="1" parent="1">
          <mxGeometry x="280" y="551" width="260" height="31" as="geometry" />
        </mxCell>
        <mxCell id="wzGuwuQVTWBn12HWUTbO-46" value="&lt;span style=&quot;color: rgb(0 , 0 , 0) ; font-style: normal ; letter-spacing: normal ; text-align: center ; text-indent: 0px ; text-transform: none ; word-spacing: 0px ; background-color: rgb(248 , 249 , 250) ; display: inline ; float: none&quot;&gt;&lt;font face=&quot;Times New Roman&quot; size=&quot;1&quot;&gt;&lt;b style=&quot;font-size: 13px&quot;&gt;DarknetConv2D_BN_Leaky_1×1(&lt;/b&gt;&lt;/font&gt;&lt;b style=&quot;font-family: &amp;#34;times new roman&amp;#34; ; font-size: 13px&quot;&gt;256,19,19&lt;/b&gt;&lt;font face=&quot;Times New Roman&quot; size=&quot;1&quot;&gt;&lt;b style=&quot;font-size: 13px&quot;&gt;)&lt;/b&gt;&lt;/font&gt;&lt;/span&gt;" style="rounded=0;whiteSpace=wrap;html=1;strokeWidth=1;fontSize=7;" vertex="1" parent="1">
          <mxGeometry x="280" y="601" width="260" height="31" as="geometry" />
        </mxCell>
        <mxCell id="wzGuwuQVTWBn12HWUTbO-47" value="&lt;font face=&quot;Times New Roman&quot;&gt;&lt;span&gt;Concat(1024,19,19)&lt;/span&gt;&lt;/font&gt;" style="rounded=0;whiteSpace=wrap;html=1;fontStyle=1" vertex="1" parent="1">
          <mxGeometry x="354" y="440" width="120" height="30" as="geometry" />
        </mxCell>
        <mxCell id="wzGuwuQVTWBn12HWUTbO-48" value="&lt;span style=&quot;color: rgb(0 , 0 , 0) ; font-style: normal ; letter-spacing: normal ; text-align: center ; text-indent: 0px ; text-transform: none ; word-spacing: 0px ; background-color: rgb(248 , 249 , 250) ; display: inline ; float: none&quot;&gt;&lt;font face=&quot;Times New Roman&quot; size=&quot;1&quot;&gt;&lt;b style=&quot;font-size: 13px&quot;&gt;DarknetConv2D_BN_Leaky_1×1(&lt;/b&gt;&lt;/font&gt;&lt;b style=&quot;font-family: &amp;#34;times new roman&amp;#34; ; font-size: 13px&quot;&gt;256,19,19&lt;/b&gt;&lt;font face=&quot;Times New Roman&quot; size=&quot;1&quot;&gt;&lt;b style=&quot;font-size: 13px&quot;&gt;)&lt;/b&gt;&lt;/font&gt;&lt;/span&gt;" style="rounded=0;whiteSpace=wrap;html=1;strokeWidth=1;fontSize=7;" vertex="1" parent="1">
          <mxGeometry x="280" y="501" width="260" height="31" as="geometry" />
        </mxCell>
        <mxCell id="wzGuwuQVTWBn12HWUTbO-49" value="" style="endArrow=classic;html=1;" edge="1" parent="1">
          <mxGeometry width="50" height="50" relative="1" as="geometry">
            <mxPoint x="413.79999999999995" y="481" as="sourcePoint" />
            <mxPoint x="413.79999999999995" y="501" as="targetPoint" />
          </mxGeometry>
        </mxCell>
        <mxCell id="wzGuwuQVTWBn12HWUTbO-50" value="" style="endArrow=classic;html=1;" edge="1" parent="1">
          <mxGeometry width="50" height="50" relative="1" as="geometry">
            <mxPoint x="413" y="531" as="sourcePoint" />
            <mxPoint x="413" y="551" as="targetPoint" />
          </mxGeometry>
        </mxCell>
        <mxCell id="wzGuwuQVTWBn12HWUTbO-51" value="" style="endArrow=classic;html=1;" edge="1" parent="1">
          <mxGeometry width="50" height="50" relative="1" as="geometry">
            <mxPoint x="413" y="582" as="sourcePoint" />
            <mxPoint x="413" y="602" as="targetPoint" />
          </mxGeometry>
        </mxCell>
        <mxCell id="wzGuwuQVTWBn12HWUTbO-52" value="&lt;font face=&quot;Times New Roman&quot;&gt;&lt;span&gt;Output(256,19,19)&lt;/span&gt;&lt;/font&gt;" style="rounded=0;whiteSpace=wrap;html=1;fontStyle=1" vertex="1" parent="1">
          <mxGeometry x="354" y="653" width="120" height="30" as="geometry" />
        </mxCell>
        <mxCell id="wzGuwuQVTWBn12HWUTbO-54" value="" style="endArrow=classic;html=1;" edge="1" parent="1">
          <mxGeometry width="50" height="50" relative="1" as="geometry">
            <mxPoint x="412.76" y="631.9999999999999" as="sourcePoint" />
            <mxPoint x="412.76" y="651.9999999999999" as="targetPoint" />
          </mxGeometry>
        </mxCell>
      </root>
    </mxGraphModel>
  </diagram>
</mxfile>
